<svg width="58" height="58" viewBox="0 0 58 58" fill="none" xmlns="http://www.w3.org/2000/svg">
<path d="M34.7088 29.242C34.3773 28.9099 33.8392 28.9099 33.5074 29.2429C33.1759 29.5755 33.1759 30.1147 33.5082 30.4468L45.951 42.9044C46.1108 43.0645 46.3272 43.1532 46.5515 43.1532C46.571 43.1532 46.5905 43.1527 46.6099 43.1514C46.8551 43.1341 47.0807 43.0117 47.229 42.8157C50.2469 38.8201 51.8421 34.0548 51.8421 29.0341C51.8421 23.2848 49.7035 17.7892 45.8192 13.5599C41.9588 9.35641 36.7168 6.7629 31.0581 6.25652C30.589 6.21396 30.1779 6.5607 30.1359 7.02894C30.0943 7.49719 30.4395 7.91089 30.9068 7.95257C36.1438 8.42081 40.9954 10.8219 44.5686 14.7128C48.1631 18.6272 50.1429 23.7136 50.1429 29.0345C50.1429 33.3525 48.8685 37.466 46.4466 40.9933L34.7088 29.242Z" fill="white"/>
<path d="M27.8641 7.02894C27.8221 6.5607 27.4083 6.21484 26.9419 6.25652C22.6925 6.63697 18.6449 8.20221 15.2354 10.7833C15.0394 10.9318 14.9173 11.158 14.9 11.4041C14.8832 11.6497 14.9735 11.8909 15.1474 12.0648L30.7094 27.6449C30.8753 27.8112 31.0926 27.8941 31.3099 27.8941C31.5276 27.8941 31.7449 27.8107 31.9108 27.6444C32.2427 27.3119 32.2422 26.7727 31.9104 26.4406L17.0555 11.5681C20.0362 9.52091 23.4864 8.27537 27.0932 7.95257C27.5605 7.91089 27.9057 7.49719 27.8641 7.02894Z" fill="white"/>
<path d="M11.3405 14.9797C11.0954 14.9975 10.8692 15.1203 10.7215 15.3176C7.73587 19.2994 6.1579 24.0426 6.1579 29.0345C6.1579 41.6447 16.405 51.9039 29 51.9039C33.9857 51.9039 38.7227 50.324 42.7 47.3354C42.8969 47.1869 43.0199 46.9603 43.0376 46.7142C43.0548 46.4681 42.9646 46.2264 42.7902 46.0517L12.0012 15.2267C11.8273 15.0525 11.5865 14.9629 11.3405 14.9797ZM29 50.2012C17.3418 50.2012 7.85712 40.706 7.85712 29.0345C7.85712 24.7445 9.11649 20.6527 11.5082 17.14L40.8799 46.5461C37.3713 48.9406 33.2852 50.2012 29 50.2012Z" fill="white"/>
<path d="M49.5061 8.50373C44.0284 3.02007 36.746 0 29 0C21.254 0 13.9716 3.02007 8.49388 8.50373C3.01656 13.9878 0 21.2788 0 29.0345C0 36.4337 2.78114 43.4813 7.83057 48.8785C12.8557 54.25 19.649 57.4886 26.9587 57.9981C27.4269 58.0291 27.8327 57.6766 27.865 57.2075C27.8977 56.7384 27.5446 56.3318 27.0764 56.2994C20.1959 55.8201 13.8013 52.7712 9.07002 47.7141C4.31708 42.6335 1.69922 35.9996 1.69922 29.0345C1.69922 21.7342 4.53877 14.8707 9.69528 9.70803C14.8518 4.54585 21.7075 1.7027 29 1.7027C36.2925 1.7027 43.1482 4.54585 48.3047 9.70803C53.4612 14.8707 56.3008 21.7342 56.3008 29.0345C56.3008 35.9996 53.6829 42.6335 48.93 47.7141C44.1987 52.7712 37.8041 55.8201 30.9236 56.2994C30.4554 56.3322 30.1023 56.7388 30.135 57.2079C30.166 57.6567 30.539 57.9999 30.9815 57.9999C31.0014 57.9999 31.0214 57.9994 31.0413 57.9981C38.351 57.4886 45.1443 54.25 50.1694 48.8785C55.2189 43.4813 58 36.4337 58 29.0345C58 21.2788 54.9834 13.9878 49.5061 8.50373Z" fill="white"/>
</svg>
