<svg width="55" height="58" viewBox="0 0 55 58" fill="none" xmlns="http://www.w3.org/2000/svg">
<path d="M23.9851 33.1591H2.42112C1.43513 33.1591 1.43513 31.648 2.42112 31.648H21.8957C23.0039 31.648 23.0052 29.9492 21.8957 29.9492H4.07317V4.90915H49.5707V29.9492H44.1772C43.0695 29.9492 43.0673 31.648 44.1772 31.648H51.5261C52.5117 31.648 52.5117 33.1591 51.5261 33.1591H42.2375C41.1298 33.1591 41.128 34.8583 42.2375 34.8583H51.5261C52.8609 34.8583 53.9468 33.7569 53.9468 32.4038C53.9468 31.0501 52.8609 29.9492 51.5261 29.9492H51.2468V4.90915H51.5261C52.8609 4.90915 53.9468 3.80776 53.9468 2.45458C53.9468 1.10095 52.8609 0 51.5261 0H2.42112C1.08595 0 0 1.10095 0 2.45458C0 3.79979 1.07329 4.89587 2.39711 4.90915V29.9492C1.07329 29.9625 0 31.0581 0 32.4038C0 33.7569 1.08595 34.8583 2.42112 34.8583H23.9851C25.0929 34.8583 25.0946 33.1591 23.9851 33.1591ZM2.42112 1.69922H51.5261C52.5117 1.69922 52.5117 3.20993 51.5261 3.20993H2.42112C1.43469 3.20993 1.436 1.69922 2.42112 1.69922Z" fill="white"/>
<path d="M14.4228 7.98233C14.4228 7.23627 13.824 6.6296 13.0881 6.6296H7.82726C7.09137 6.6296 6.49296 7.23627 6.49296 7.98233V11.2772C6.49296 12.0233 7.09137 12.63 7.82726 12.63H13.0881C13.824 12.63 14.4228 12.0233 14.4228 11.2772V7.98233ZM12.7468 10.9307H8.16858V8.32837H12.7468V10.9307Z" fill="white"/>
<path d="M14.4228 15.8558C14.4228 15.1097 13.824 14.5031 13.0881 14.5031H7.82726C7.09137 14.5031 6.49296 15.1097 6.49296 15.8558V19.1507C6.49296 19.8968 7.09137 20.5034 7.82726 20.5034H13.0881C13.824 20.5034 14.4228 19.8968 14.4228 19.1507V15.8558ZM12.7468 18.8042H8.16858V16.2018H12.7468V18.8042Z" fill="white"/>
<path d="M13.0881 22.3765H7.82726C7.09137 22.3765 6.49296 22.9832 6.49296 23.7293V27.0242C6.49296 27.7702 7.09137 28.3769 7.82726 28.3769H13.0881C13.824 28.3769 14.4228 27.7702 14.4228 27.0242V23.7293C14.4228 22.9832 13.824 22.3765 13.0881 22.3765ZM12.7468 26.6781H8.16858V24.0753H12.7468V26.6781Z" fill="white"/>
<path d="M49.8741 38.6041C48.9614 38.2063 48.0042 37.9222 47.0291 37.7297L38.5384 36.0562V33.9291C40.9229 32.2803 42.2135 29.9447 42.4946 27.322C43.732 27.2225 44.7093 26.1697 44.7093 24.89V23.1439C46.7271 22.2544 46.4543 19.2693 44.3195 18.7657V18.0914C44.3195 12.033 39.4751 7.12122 33.4989 7.12122H32.5919C26.6157 7.12122 21.7713 12.033 21.7713 18.0914V18.7653C19.6374 19.2689 19.3637 22.2544 21.3819 23.1439V24.8896C21.3819 26.1697 22.3588 27.2225 23.5966 27.3216C23.8764 29.9324 25.1513 32.2683 27.5528 33.9291V36.0557L19.0621 37.7297C18.087 37.9222 17.1298 38.2059 16.2172 38.6041C12.7721 40.1073 11.0912 42.507 11.0912 45.8966V47.6418C11.0912 48.7649 12.7668 48.7667 12.7668 47.6418V45.897C12.7668 43.3513 13.9078 41.591 16.4105 40.375C16.5113 40.8273 18.0469 45.0527 18.0469 50.9566V56.3012H14.5057C13.5455 56.3012 12.7668 55.5118 12.7668 54.5383V51.0221C12.7668 49.8991 11.0912 49.8973 11.0912 51.0221V54.5383C11.0912 56.4503 12.6197 58 14.5057 58H51.5855C53.4715 58 55 56.4503 55 54.5383V45.897C55 42.507 53.3187 40.1073 49.8741 38.6041ZM48.1181 39.7436C48.0016 40.2622 46.3683 44.72 46.3683 50.9566V56.3012H33.8834V52.0209C33.8834 50.7482 34.2653 49.5251 34.9877 48.4844C36.0697 46.9245 40.5265 40.4051 41.8482 38.4395C47.8637 39.6675 47.1382 39.413 48.1181 39.7436ZM32.474 47.5064C31.8311 46.5798 30.9961 45.3638 30.1245 44.0894C30.3833 44.0314 30.6361 43.9306 30.8731 43.7867L33.0454 42.4659L35.2177 43.7867C35.4547 43.9306 35.7074 44.0314 35.9663 44.0894C35.0955 45.3634 34.2605 46.5789 33.6172 47.5064C33.4029 47.8153 33.2121 48.1366 33.0454 48.468C32.8791 48.1366 32.6884 47.8153 32.474 47.5064ZM31.3348 41.5247C30.008 42.2451 30.1022 42.4606 29.4995 42.388C29.1245 42.3428 28.788 42.1313 28.5733 41.8163C27.5716 40.3454 26.6441 38.9807 26.0369 38.0855L27.7152 37.755C28.2573 39.4241 30.0438 40.7516 31.3348 41.5247ZM40.0543 38.0859C39.4454 38.9829 38.5157 40.3516 37.5114 41.826C37.1015 42.4269 36.367 42.5039 36.0798 42.3291L34.7559 41.5247C36.0475 40.7516 37.8335 39.4241 38.3756 37.755L40.0543 38.0859ZM28.1647 9.98113V11.0467C28.1647 12.1698 29.8404 12.1715 29.8404 11.0467V9.24923C30.5924 9.00806 31.3864 8.86336 32.2078 8.82885V13.0295C32.2078 14.1526 33.8834 14.1544 33.8834 13.0295V8.82885C34.7049 8.86336 35.4988 9.0085 36.2504 9.24923V11.0467C36.2504 12.1698 37.9265 12.1715 37.9265 11.0467V9.98157C43.165 12.9322 42.6081 18.5715 42.6439 18.706H23.4473C23.4761 18.5967 22.9532 12.9171 28.1647 9.98113ZM22.2889 20.4048H43.8023C44.6058 20.4048 44.6045 21.6354 43.8023 21.6354H22.2889C21.4854 21.6354 21.4867 20.4048 22.2889 20.4048ZM25.2194 26.4618C25.2094 25.9998 24.8375 25.6308 24.3814 25.6308C24.2417 25.5954 23.058 25.8511 23.058 24.89V23.3346H43.0336V24.89C43.0336 25.8498 41.8176 25.6033 41.7098 25.6308C41.2537 25.6308 40.8814 25.9998 40.8718 26.4618C40.8268 28.5858 39.9369 30.5585 38.4293 31.8741C35.2291 34.6676 30.8626 34.668 27.6619 31.8741C26.1543 30.5585 25.2639 28.5854 25.2194 26.4618ZM36.8624 34.8672V36.7562C36.8624 38.2753 34.3195 39.8838 33.0454 40.5339C31.7726 39.8843 29.2354 38.2798 29.2284 36.7624C29.2284 36.7606 29.2284 36.7584 29.2284 36.7562V34.8672C31.6674 35.9336 34.4207 35.9349 36.8624 34.8672ZM17.9731 39.7436C18.9517 39.4139 18.2245 39.6679 24.2426 38.4395L24.7214 39.1449C25.2098 39.8648 25.8859 40.86 26.6353 41.961C28.0024 43.9699 29.8879 46.7325 31.1035 48.4839C31.8259 49.5251 32.2078 50.7478 32.2078 52.0209V56.3008H19.7229V50.9562C19.7229 44.5594 18.1293 40.441 17.9731 39.7436ZM53.3239 54.5383C53.3239 55.51 52.5444 56.3008 51.5855 56.3008H48.0444V50.9566C48.0444 45.2147 49.6187 40.6529 49.6811 40.375C52.1834 41.591 53.3244 43.3513 53.3244 45.897V54.5383H53.3239Z" fill="white"/>
<path d="M37.6135 49.1396C36.8235 49.1396 36.1805 49.7915 36.1805 50.5924V52.2947C36.1805 53.0961 36.8235 53.7474 37.6135 53.7474H42.5417C43.3317 53.7474 43.9746 53.0961 43.9746 52.2947V50.5924C43.9746 49.7915 43.3317 49.1396 42.5417 49.1396H37.6135ZM42.2986 52.0482H37.8566V50.8389H42.2986V52.0482Z" fill="white"/>
</svg>
