<svg width="145" height="39" viewBox="0 0 145 39" fill="none" xmlns="http://www.w3.org/2000/svg">
<path d="M0.338285 32.6619C0.244317 32.6619 0.164444 32.6291 0.0986664 32.5633C0.0328888 32.4975 0 32.4176 0 32.3237V23.1477C0 23.0443 0.0328888 22.9598 0.0986664 22.894C0.164444 22.8282 0.244317 22.7953 0.338285 22.7953H6.54018C6.64354 22.7953 6.72811 22.8282 6.79389 22.894C6.85967 22.9598 6.89256 23.0443 6.89256 23.1477V24.078C6.89256 24.1719 6.85967 24.2518 6.79389 24.3176C6.72811 24.3834 6.64354 24.4163 6.54018 24.4163H1.90285V26.9111H6.23008C6.33345 26.9111 6.41802 26.944 6.4838 27.0098C6.54957 27.0662 6.58246 27.146 6.58246 27.2494V28.1233C6.58246 28.2267 6.54957 28.3112 6.4838 28.377C6.41802 28.4334 6.33345 28.4616 6.23008 28.4616H1.90285V31.041H6.65294C6.7563 31.041 6.84087 31.0739 6.90665 31.1397C6.97243 31.2054 7.00532 31.29 7.00532 31.3934V32.3237C7.00532 32.4176 6.97243 32.4975 6.90665 32.5633C6.84087 32.6291 6.7563 32.6619 6.65294 32.6619H0.338285Z" fill="#363636"/>
<path d="M9.10649 32.6619C9.01253 32.6619 8.93265 32.6291 8.86688 32.5633C8.8011 32.4975 8.76821 32.4176 8.76821 32.3237V23.1477C8.76821 23.0443 8.8011 22.9598 8.86688 22.894C8.93265 22.8282 9.01253 22.7953 9.10649 22.7953H12.5457C13.4948 22.7953 14.2747 22.941 14.8855 23.2323C15.5057 23.5236 15.9709 23.9558 16.281 24.529C16.6004 25.1022 16.7649 25.8023 16.7743 26.6292C16.7931 27.0427 16.8025 27.4091 16.8025 27.7286C16.8025 28.0481 16.7931 28.4099 16.7743 28.814C16.7555 29.6879 16.5957 30.4114 16.295 30.9846C15.9944 31.5484 15.5386 31.9713 14.9278 32.2532C14.3264 32.5257 13.5559 32.6619 12.6162 32.6619H9.10649ZM10.7274 31.041H12.5457C13.0719 31.041 13.4995 30.9658 13.8284 30.8155C14.1573 30.6651 14.3969 30.4255 14.5472 30.0966C14.707 29.7583 14.7916 29.3167 14.801 28.7717C14.8104 28.4898 14.8151 28.2455 14.8151 28.0387C14.8244 27.8226 14.8244 27.6112 14.8151 27.4044C14.8151 27.1883 14.8104 26.944 14.801 26.6715C14.7822 25.9009 14.5895 25.3324 14.2231 24.966C13.8566 24.5995 13.274 24.4163 12.4752 24.4163H10.7274V31.041Z" fill="#363636"/>
<path d="M19.0172 32.6619C18.9232 32.6619 18.8433 32.6291 18.7776 32.5633C18.7118 32.4975 18.6789 32.4176 18.6789 32.3237V23.1477C18.6789 23.0443 18.7118 22.9598 18.7776 22.894C18.8433 22.8282 18.9232 22.7953 19.0172 22.7953H25.2191C25.3224 22.7953 25.407 22.8282 25.4728 22.894C25.5386 22.9598 25.5715 23.0443 25.5715 23.1477V24.078C25.5715 24.1719 25.5386 24.2518 25.4728 24.3176C25.407 24.3834 25.3224 24.4163 25.2191 24.4163H20.5818V26.9111H24.909C25.0123 26.9111 25.0969 26.944 25.1627 27.0098C25.2285 27.0662 25.2614 27.146 25.2614 27.2494V28.1233C25.2614 28.2267 25.2285 28.3112 25.1627 28.377C25.0969 28.4334 25.0123 28.4616 24.909 28.4616H20.5818V31.041H25.3318C25.4352 31.041 25.5198 31.0739 25.5856 31.1397C25.6513 31.2054 25.6842 31.29 25.6842 31.3934V32.3237C25.6842 32.4176 25.6513 32.4975 25.5856 32.5633C25.5198 32.6291 25.4352 32.6619 25.3318 32.6619H19.0172Z" fill="#363636"/>
<path d="M27.7854 32.6619C27.6914 32.6619 27.6116 32.6291 27.5458 32.5633C27.48 32.4975 27.4471 32.4176 27.4471 32.3237V23.1336C27.4471 23.0396 27.48 22.9598 27.5458 22.894C27.6116 22.8282 27.6914 22.7953 27.7854 22.7953H29.0962C29.1902 22.7953 29.2701 22.8282 29.3359 22.894C29.4016 22.9598 29.4345 23.0396 29.4345 23.1336V30.9846H33.9027C34.0061 30.9846 34.0906 31.0175 34.1564 31.0833C34.2222 31.1491 34.2551 31.2336 34.2551 31.337V32.3237C34.2551 32.4176 34.2222 32.4975 34.1564 32.5633C34.0906 32.6291 34.0061 32.6619 33.9027 32.6619H27.7854Z" fill="#363636"/>
<path d="M39.9994 32.803C39.9054 32.803 39.8256 32.7701 39.7598 32.7043C39.694 32.6385 39.6611 32.5586 39.6611 32.4647V23.2887C39.6611 23.1853 39.694 23.1008 39.7598 23.035C39.8256 22.9692 39.9054 22.9363 39.9994 22.9363H43.4386C44.3877 22.9363 45.1676 23.082 45.7784 23.3733C46.3986 23.6646 46.8638 24.0968 47.1739 24.67C47.4934 25.2432 47.6578 25.9433 47.6672 26.7702C47.686 27.1837 47.6954 27.5502 47.6954 27.8696C47.6954 28.1891 47.686 28.5509 47.6672 28.955C47.6484 29.8289 47.4887 30.5524 47.188 31.1256C46.8873 31.6894 46.4315 32.1123 45.8207 32.3942C45.2193 32.6667 44.4488 32.803 43.5091 32.803H39.9994ZM41.6203 31.182H43.4386C43.9649 31.182 44.3924 31.1068 44.7213 30.9565C45.0502 30.8061 45.2898 30.5665 45.4402 30.2376C45.5999 29.8994 45.6845 29.4577 45.6939 28.9127C45.7033 28.6308 45.708 28.3865 45.708 28.1797C45.7174 27.9636 45.7174 27.7522 45.708 27.5455C45.708 27.3293 45.7033 27.085 45.6939 26.8125C45.6751 26.042 45.4824 25.4735 45.116 25.107C44.7495 24.7405 44.1669 24.5573 43.3682 24.5573H41.6203V31.182Z" fill="#363636"/>
<path d="M49.9101 32.803C49.8161 32.803 49.7363 32.7701 49.6705 32.7043C49.6047 32.6385 49.5718 32.5586 49.5718 32.4647V23.2887C49.5718 23.1853 49.6047 23.1008 49.6705 23.035C49.7363 22.9692 49.8161 22.9363 49.9101 22.9363H56.112C56.2153 22.9363 56.2999 22.9692 56.3657 23.035C56.4315 23.1008 56.4644 23.1853 56.4644 23.2887V24.219C56.4644 24.313 56.4315 24.3928 56.3657 24.4586C56.2999 24.5244 56.2153 24.5573 56.112 24.5573H51.4747V27.0521H55.8019C55.9053 27.0521 55.9898 27.085 56.0556 27.1508C56.1214 27.2072 56.1543 27.287 56.1543 27.3904V28.2643C56.1543 28.3677 56.1214 28.4522 56.0556 28.518C55.9898 28.5744 55.9053 28.6026 55.8019 28.6026H51.4747V31.182H56.2247C56.3281 31.182 56.4127 31.2149 56.4785 31.2807C56.5442 31.3465 56.5771 31.431 56.5771 31.5344V32.4647C56.5771 32.5586 56.5442 32.6385 56.4785 32.7043C56.4127 32.7701 56.3281 32.803 56.2247 32.803H49.9101Z" fill="#363636"/>
<path d="M61.7652 32.9439C60.8913 32.9439 60.1583 32.8171 59.5663 32.5633C58.9837 32.3002 58.5374 31.9619 58.2273 31.5485C57.9266 31.1256 57.7668 30.684 57.748 30.2235C57.748 30.139 57.7762 30.0685 57.8326 30.0121C57.889 29.9557 57.9594 29.9275 58.044 29.9275H59.2985C59.4207 29.9275 59.5099 29.9557 59.5663 30.0121C59.6321 30.0591 59.6885 30.1202 59.7354 30.1953C59.7918 30.3739 59.8999 30.5524 60.0596 30.731C60.2194 30.9001 60.4355 31.0411 60.708 31.1538C60.9899 31.2666 61.3423 31.323 61.7652 31.323C62.4417 31.323 62.9445 31.2102 63.2733 30.9847C63.6116 30.7592 63.7808 30.4538 63.7808 30.0685C63.7808 29.796 63.6915 29.5799 63.513 29.4201C63.3344 29.251 63.0572 29.1006 62.6813 28.9691C62.3149 28.8281 61.8262 28.6825 61.2154 28.5321C60.5107 28.363 59.9187 28.1609 59.4394 27.926C58.9696 27.6817 58.6125 27.3763 58.3682 27.0098C58.1333 26.6434 58.0158 26.1782 58.0158 25.6144C58.0158 25.0694 58.1615 24.5855 58.4528 24.1626C58.7535 23.7397 59.1763 23.4062 59.7213 23.1618C60.2758 22.9175 60.9335 22.7954 61.6947 22.7954C62.3055 22.7954 62.8458 22.8799 63.3156 23.0491C63.7855 23.2088 64.1754 23.425 64.4855 23.6975C64.7956 23.9606 65.0305 24.2472 65.1903 24.5573C65.3594 24.858 65.4487 25.154 65.4581 25.4453C65.4581 25.5204 65.4299 25.5909 65.3735 25.6567C65.3265 25.7131 65.2561 25.7413 65.1621 25.7413H63.8512C63.7761 25.7413 63.7009 25.7225 63.6257 25.6849C63.5505 25.6473 63.4895 25.5768 63.4425 25.4735C63.3861 25.1822 63.2029 24.9331 62.8928 24.7264C62.5827 24.5197 62.1833 24.4163 61.6947 24.4163C61.1872 24.4163 60.7785 24.5103 60.4684 24.6982C60.1583 24.8862 60.0033 25.1775 60.0033 25.5721C60.0033 25.8352 60.0784 26.0561 60.2288 26.2346C60.3885 26.4037 60.6375 26.5541 60.9758 26.6857C61.3235 26.8172 61.7792 26.9582 62.3431 27.1085C63.1418 27.287 63.7949 27.4938 64.3023 27.7287C64.8097 27.9636 65.1809 28.2643 65.4158 28.6308C65.6507 28.9879 65.7682 29.4436 65.7682 29.998C65.7682 30.6182 65.599 31.1491 65.2608 31.5908C64.9319 32.023 64.4667 32.3566 63.8653 32.5915C63.2639 32.8265 62.5639 32.9439 61.7652 32.9439Z" fill="#363636"/>
<path d="M75.4295 32.9439C74.565 32.9439 73.8273 32.7936 73.2165 32.4929C72.6151 32.1922 72.1453 31.7599 71.807 31.1961C71.4781 30.6229 71.2996 29.9416 71.2714 29.1523C71.262 28.7482 71.2573 28.316 71.2573 27.8555C71.2573 27.3857 71.262 26.9441 71.2714 26.5306C71.2996 25.7507 71.4781 25.0835 71.807 24.5291C72.1453 23.9747 72.6198 23.5471 73.2306 23.2464C73.8508 22.9457 74.5837 22.7954 75.4295 22.7954C76.1154 22.7954 76.7168 22.8893 77.2337 23.0773C77.7505 23.2558 78.178 23.4907 78.5163 23.782C78.864 24.0639 79.1224 24.3693 79.2915 24.6982C79.4701 25.0271 79.5641 25.3325 79.5735 25.6144C79.5829 25.699 79.5594 25.7695 79.503 25.8258C79.4466 25.8822 79.3714 25.9104 79.2775 25.9104H77.8257C77.7317 25.9104 77.6612 25.8916 77.6142 25.854C77.5672 25.8164 77.5249 25.7601 77.4874 25.6849C77.4122 25.4876 77.2947 25.2949 77.135 25.107C76.9752 24.9097 76.7591 24.7452 76.4866 24.6137C76.2141 24.4821 75.8617 24.4163 75.4295 24.4163C74.7905 24.4163 74.2784 24.5855 73.8931 24.9237C73.5172 25.262 73.3152 25.8211 73.287 26.6011C73.2588 27.4186 73.2588 28.2455 73.287 29.0818C73.3152 29.8806 73.5219 30.4538 73.9072 30.8014C74.3018 31.1491 74.8187 31.323 75.4577 31.323C75.8805 31.323 76.2564 31.2478 76.5853 31.0974C76.9236 30.9471 77.1867 30.7122 77.3746 30.3927C77.5719 30.0732 77.6706 29.6644 77.6706 29.1664V28.7295H75.951C75.857 28.7295 75.7771 28.6966 75.7114 28.6308C75.6456 28.565 75.6127 28.4804 75.6127 28.3771V27.63C75.6127 27.5267 75.6456 27.4421 75.7114 27.3763C75.7771 27.3105 75.857 27.2776 75.951 27.2776H79.3197C79.4231 27.2776 79.503 27.3105 79.5594 27.3763C79.6251 27.4421 79.658 27.5267 79.658 27.63V29.11C79.658 29.8994 79.4842 30.5806 79.1365 31.1538C78.7982 31.727 78.3096 32.1687 77.6706 32.4788C77.041 32.7889 76.294 32.9439 75.4295 32.9439Z" fill="#363636"/>
<path d="M81.8033 32.803C81.7093 32.803 81.6294 32.7701 81.5636 32.7043C81.4978 32.6385 81.465 32.5586 81.465 32.4647V23.2887C81.465 23.1853 81.4978 23.1008 81.5636 23.035C81.6294 22.9692 81.7093 22.9363 81.8033 22.9363H82.8886C83.0201 22.9363 83.1141 22.9692 83.1705 23.035C83.2363 23.0914 83.2785 23.1337 83.2973 23.1618L87.3568 29.4765V23.2887C87.3568 23.1853 87.3849 23.1008 87.4413 23.035C87.5071 22.9692 87.5917 22.9363 87.695 22.9363H88.879C88.9824 22.9363 89.067 22.9692 89.1328 23.035C89.1985 23.1008 89.2314 23.1853 89.2314 23.2887V32.4506C89.2314 32.5539 89.1985 32.6385 89.1328 32.7043C89.067 32.7701 88.9871 32.803 88.8931 32.803H87.7937C87.6622 32.803 87.5682 32.7701 87.5118 32.7043C87.4554 32.6385 87.4131 32.5962 87.3849 32.5774L83.3396 26.4037V32.4647C83.3396 32.5586 83.3067 32.6385 83.241 32.7043C83.1752 32.7701 83.0906 32.803 82.9872 32.803H81.8033Z" fill="#363636"/>
<path d="M98.0768 32.9439C97.2029 32.9439 96.47 32.8171 95.878 32.5633C95.2954 32.3002 94.849 31.9619 94.5389 31.5485C94.2382 31.1256 94.0785 30.684 94.0597 30.2235C94.0597 30.139 94.0879 30.0685 94.1443 30.0121C94.2006 29.9557 94.2711 29.9275 94.3557 29.9275H95.6102C95.7323 29.9275 95.8216 29.9557 95.878 30.0121C95.9438 30.0591 96.0001 30.1202 96.0471 30.1953C96.1035 30.3739 96.2116 30.5524 96.3713 30.731C96.5311 30.9001 96.7472 31.0411 97.0197 31.1538C97.3016 31.2666 97.654 31.323 98.0768 31.323C98.7534 31.323 99.2561 31.2102 99.585 30.9847C99.9233 30.7592 100.092 30.4538 100.092 30.0685C100.092 29.796 100.003 29.5799 99.8246 29.4201C99.6461 29.251 99.3689 29.1006 98.993 28.9691C98.6265 28.8281 98.1379 28.6825 97.5271 28.5321C96.8224 28.363 96.2303 28.1609 95.7511 27.926C95.2813 27.6817 94.9242 27.3763 94.6799 27.0098C94.445 26.6434 94.3275 26.1782 94.3275 25.6144C94.3275 25.0694 94.4731 24.5855 94.7645 24.1626C95.0651 23.7397 95.488 23.4062 96.033 23.1618C96.5874 22.9175 97.2452 22.7954 98.0063 22.7954C98.6171 22.7954 99.1575 22.8799 99.6273 23.0491C100.097 23.2088 100.487 23.425 100.797 23.6975C101.107 23.9606 101.342 24.2472 101.502 24.5573C101.671 24.858 101.76 25.154 101.77 25.4453C101.77 25.5204 101.742 25.5909 101.685 25.6567C101.638 25.7131 101.568 25.7413 101.474 25.7413H100.163C100.088 25.7413 100.013 25.7225 99.9374 25.6849C99.8622 25.6473 99.8011 25.5768 99.7542 25.4735C99.6978 25.1822 99.5145 24.9331 99.2044 24.7264C98.8943 24.5197 98.495 24.4163 98.0063 24.4163C97.4989 24.4163 97.0901 24.5103 96.7801 24.6982C96.47 24.8862 96.3149 25.1775 96.3149 25.5721C96.3149 25.8352 96.3901 26.0561 96.5405 26.2346C96.7002 26.4037 96.9492 26.5541 97.2875 26.6857C97.6352 26.8172 98.0909 26.9582 98.6547 27.1085C99.4535 27.287 100.107 27.4938 100.614 27.7287C101.121 27.9636 101.493 28.2643 101.727 28.6308C101.962 28.9879 102.08 29.4436 102.08 29.998C102.08 30.6182 101.911 31.1491 101.572 31.5908C101.244 32.023 100.778 32.3566 100.177 32.5915C99.5756 32.8265 98.8755 32.9439 98.0768 32.9439Z" fill="#363636"/>
<path d="M106.094 32.803C106 32.803 105.92 32.7701 105.854 32.7043C105.789 32.6385 105.756 32.5586 105.756 32.4647L105.82 22.043H99.5286C99.4347 22.043 99.3548 22.0101 99.289 21.9443C99.2232 21.8785 99.1903 21.7986 99.1903 21.7047V20.6616C99.1903 20.5583 99.2232 20.4737 99.289 20.4079C99.3548 20.3421 99.4347 20.3093 99.5286 20.3093H113.726C113.83 20.3093 113.914 20.3421 113.98 20.4079C114.046 20.4737 114.079 20.5583 114.079 20.6616V21.7047C114.079 21.7986 114.046 21.8785 113.98 21.9443C113.914 22.0101 113.83 22.043 113.726 22.043H107.807L107.743 32.4647C107.743 32.5586 107.71 32.6385 107.645 32.7043C107.579 32.7701 107.494 32.803 107.391 32.803H106.094Z" fill="#363636"/>
<path d="M112.458 32.803C112.364 32.803 112.284 32.7701 112.218 32.7043C112.152 32.6385 112.119 32.5586 112.119 32.4647V23.2887C112.119 23.1853 112.152 23.1008 112.218 23.035C112.284 22.9692 112.364 22.9363 112.458 22.9363H116.108C117.245 22.9363 118.143 23.1994 118.8 23.7257C119.458 24.2519 119.787 25.0177 119.787 26.0232C119.787 26.7185 119.613 27.2964 119.266 27.7569C118.927 28.2173 118.472 28.5509 117.898 28.7576L119.956 32.3519C119.984 32.4083 119.999 32.46 119.999 32.507C119.999 32.5915 119.966 32.662 119.9 32.7184C119.843 32.7748 119.778 32.803 119.703 32.803H118.42C118.26 32.803 118.138 32.7607 118.053 32.6761C117.969 32.5915 117.903 32.507 117.856 32.4224L116.038 29.0818H114.079V32.4647C114.079 32.5586 114.046 32.6385 113.98 32.7043C113.923 32.7701 113.844 32.803 113.74 32.803H112.458ZM114.079 27.4891H116.066C116.639 27.4891 117.067 27.3622 117.349 27.1085C117.631 26.8454 117.771 26.4789 117.771 26.0091C117.771 25.5392 117.631 25.1728 117.349 24.9097C117.076 24.6371 116.649 24.5009 116.066 24.5009H114.079V27.4891Z" fill="#363636"/>
<path d="M125.367 32.9439C124.531 32.9439 123.812 32.8077 123.211 32.5351C122.609 32.2532 122.14 31.8257 121.801 31.2525C121.463 30.6699 121.28 29.9463 121.252 29.0818C121.242 28.6778 121.237 28.2784 121.237 27.8837C121.237 27.4891 121.242 27.085 121.252 26.6716C121.28 25.8164 121.468 25.1023 121.815 24.5291C122.163 23.9559 122.638 23.5236 123.239 23.2323C123.85 22.941 124.559 22.7954 125.367 22.7954C126.175 22.7954 126.885 22.941 127.496 23.2323C128.107 23.5236 128.586 23.9559 128.933 24.5291C129.281 25.1023 129.469 25.8164 129.497 26.6716C129.516 27.085 129.525 27.4891 129.525 27.8837C129.525 28.2784 129.516 28.6778 129.497 29.0818C129.469 29.9463 129.286 30.6699 128.948 31.2525C128.609 31.8257 128.135 32.2532 127.524 32.5351C126.923 32.8077 126.204 32.9439 125.367 32.9439ZM125.367 31.323C125.978 31.323 126.476 31.1444 126.861 30.7873C127.247 30.4209 127.453 29.8289 127.482 29.0114C127.5 28.5979 127.51 28.2173 127.51 27.8696C127.51 27.5126 127.5 27.132 127.482 26.7279C127.463 26.1829 127.359 25.7413 127.172 25.403C126.993 25.0553 126.749 24.8063 126.439 24.6559C126.128 24.4962 125.771 24.4163 125.367 24.4163C124.973 24.4163 124.62 24.4962 124.31 24.6559C124 24.8063 123.751 25.0553 123.563 25.403C123.385 25.7413 123.286 26.1829 123.267 26.7279C123.258 27.132 123.253 27.5126 123.253 27.8696C123.253 28.2173 123.258 28.5979 123.267 29.0114C123.295 29.8289 123.502 30.4209 123.887 30.7873C124.273 31.1444 124.766 31.323 125.367 31.323Z" fill="#363636"/>
<path d="M133.868 32.803C133.774 32.803 133.694 32.7701 133.628 32.7043C133.562 32.6385 133.529 32.5586 133.529 32.4647V29.2792L130.203 23.3874C130.193 23.3686 130.184 23.3451 130.175 23.3169C130.165 23.2887 130.161 23.2605 130.161 23.2323C130.161 23.1477 130.189 23.0773 130.245 23.0209C130.302 22.9645 130.367 22.9363 130.443 22.9363H131.697C131.81 22.9363 131.899 22.9645 131.965 23.0209C132.04 23.0773 132.092 23.1383 132.12 23.2041L134.516 27.3058L136.898 23.2041C136.936 23.1383 136.987 23.0773 137.053 23.0209C137.128 22.9645 137.222 22.9363 137.335 22.9363H138.575C138.66 22.9363 138.73 22.9645 138.787 23.0209C138.843 23.0773 138.871 23.1477 138.871 23.2323C138.871 23.2605 138.867 23.2887 138.857 23.3169C138.857 23.3451 138.848 23.3686 138.829 23.3874L135.503 29.2792V32.4647C135.503 32.5586 135.47 32.6385 135.404 32.7043C135.338 32.7701 135.254 32.803 135.15 32.803H133.868Z" fill="#363636"/>
<path d="M67.7218 32.803C67.6278 32.803 67.548 32.7701 67.4822 32.7043C67.4164 32.6385 67.3835 32.5586 67.3835 32.4647L67.3485 13.4582L57.7802 18.5531C57.6545 18.6301 57.5305 18.6675 57.4082 18.6653C57.2908 18.6712 57.2051 18.63 57.1511 18.5419L56.4589 17.4121C56.4098 17.3319 56.4121 17.2369 56.4657 17.1269C56.5193 17.0169 56.6089 16.9234 56.7346 16.8465L67.3835 11.1761V8.6446C67.3835 8.55063 67.4164 8.47076 67.4822 8.40498C67.548 8.3392 67.6278 8.30631 67.7218 8.30631H69.0468C69.1501 8.30631 69.23 8.3392 69.2864 8.40498C69.3522 8.47076 69.385 8.55063 69.385 8.6446V10.1103L88.1614 0.112277C88.2871 0.0352898 88.4111 -0.00210624 88.5334 9.14923e-05C88.6158 0.00157159 88.6816 0.02073 88.7307 0.0575682C88.7447 0.0624628 88.7583 0.0689482 88.7714 0.0770243L102.833 8.7096L108.771 5.71151C108.864 5.65431 108.961 5.63374 109.061 5.64979C109.122 5.6597 109.175 5.68091 109.218 5.71513L119.614 10.3696V9.03838C119.614 8.94442 119.647 8.86454 119.713 8.79877C119.779 8.73299 119.859 8.7001 119.953 8.7001H121.277C121.381 8.7001 121.461 8.73299 121.517 8.79877C121.583 8.86454 121.616 8.94442 121.616 9.03838V11.2657L143.945 21.3938C144.083 21.4793 144.184 21.58 144.247 21.6959C144.31 21.8118 144.317 21.9097 144.267 21.9897L143.573 23.1181C143.519 23.2061 143.428 23.2442 143.301 23.2323C143.17 23.2285 143.034 23.1838 142.895 23.0983L108.944 7.85864L86.4416 19.2195C86.3483 19.2767 86.2517 19.2973 86.152 19.2812C86.0572 19.2732 85.9828 19.2251 85.9288 19.1369L85.2366 18.0072C85.1875 17.927 85.1785 17.8389 85.2095 17.7428C85.2405 17.6466 85.3027 17.57 85.396 17.5128L100.764 9.75415L88.4462 2.22409L69.385 12.3738V32.4647C69.385 32.5586 69.3522 32.6385 69.2864 32.7043C69.23 32.7701 69.1501 32.803 69.0468 32.803H67.7218Z" fill="#363636"/>
<path d="M138.045 38.5368C138.417 38.4798 138.603 38.4107 138.603 38.3294V37.1832C138.603 37.0938 138.417 37.0247 138.045 36.9759C137.672 36.919 137.22 36.8905 136.689 36.8905H1.91402C1.38234 36.8905 0.930426 36.919 0.558256 36.9759C0.186082 37.0247 0 37.0938 0 37.1832V38.3294C0 38.4107 0.186082 38.4798 0.558256 38.5368C0.930426 38.5937 1.38234 38.6221 1.91402 38.6221L29.1496 38.6524L136.689 38.6221C137.22 38.6221 137.672 38.5937 138.045 38.5368Z" fill="#363636"/>
</svg>
