<svg width="30" height="25" viewBox="0 0 30 25" fill="none" xmlns="http://www.w3.org/2000/svg">
<path d="M0 1.78571C0 1.31211 0.197544 0.85791 0.549175 0.523024C0.900806 0.188138 1.37772 0 1.875 0H28.125C28.6223 0 29.0992 0.188138 29.4508 0.523024C29.8025 0.85791 30 1.31211 30 1.78571C30 2.25932 29.8025 2.71352 29.4508 3.0484C29.0992 3.38329 28.6223 3.57143 28.125 3.57143H1.875C1.37772 3.57143 0.900806 3.38329 0.549175 3.0484C0.197544 2.71352 0 2.25932 0 1.78571Z" fill="black"/>
<path d="M0 23.2143C0 22.7407 0.197544 22.2865 0.549175 21.9516C0.900806 21.6167 1.37772 21.4286 1.875 21.4286H28.125C28.6223 21.4286 29.0992 21.6167 29.4508 21.9516C29.8025 22.2865 30 22.7407 30 23.2143C30 23.6879 29.8025 24.1421 29.4508 24.477C29.0992 24.8119 28.6223 25 28.125 25H1.875C1.37772 25 0.900806 24.8119 0.549175 24.477C0.197544 24.1421 0 23.6879 0 23.2143Z" fill="black"/>
<path d="M13.125 10.7143C12.6277 10.7143 12.1508 10.9024 11.7992 11.2373C11.4475 11.5722 11.25 12.0264 11.25 12.5C11.25 12.9736 11.4475 13.4278 11.7992 13.7627C12.1508 14.0976 12.6277 14.2857 13.125 14.2857H28.125C28.6223 14.2857 29.0992 14.0976 29.4508 13.7627C29.8025 13.4278 30 12.9736 30 12.5C30 12.0264 29.8025 11.5722 29.4508 11.2373C29.0992 10.9024 28.6223 10.7143 28.125 10.7143H13.125Z" fill="black"/>
</svg>
