<svg width="25" height="18" viewBox="0 0 25 18" fill="none" xmlns="http://www.w3.org/2000/svg">
<path d="M24.8298 8.72182C23.8888 6.23262 22.2553 4.07996 20.1311 2.52989C18.0069 0.979818 15.4851 0.100287 12.8774 0C10.2698 0.100287 7.74801 0.979818 5.6238 2.52989C3.49959 4.07996 1.86606 6.23262 0.925102 8.72182C0.861554 8.90158 0.861554 9.09842 0.925102 9.27818C1.86606 11.7674 3.49959 13.92 5.6238 15.4701C7.74801 17.0202 10.2698 17.8997 12.8774 18C15.4851 17.8997 18.0069 17.0202 20.1311 15.4701C22.2553 13.92 23.8888 11.7674 24.8298 9.27818C24.8933 9.09842 24.8933 8.90158 24.8298 8.72182ZM12.8774 16.3636C8.63732 16.3636 4.15719 13.1482 2.53315 9C4.15719 4.85182 8.63732 1.63636 12.8774 1.63636C17.1176 1.63636 21.5977 4.85182 23.2217 9C21.5977 13.1482 17.1176 16.3636 12.8774 16.3636Z" fill="white" fill-opacity="0.5"/>
<path d="M12.8774 4.09091C11.928 4.09091 11 4.37882 10.2106 4.91824C9.4212 5.45766 8.80596 6.22435 8.44265 7.12137C8.07933 8.01839 7.98428 9.00545 8.16949 9.95772C8.3547 10.91 8.81187 11.7847 9.48318 12.4713C10.1545 13.1578 11.0098 13.6253 11.9409 13.8148C12.8721 14.0042 13.8372 13.907 14.7143 13.5354C15.5914 13.1639 16.3411 12.5346 16.8686 11.7273C17.396 10.92 17.6775 9.97093 17.6775 9C17.6775 7.69803 17.1718 6.44938 16.2716 5.52875C15.3714 4.60812 14.1505 4.09091 12.8774 4.09091ZM12.8774 12.2727C12.2445 12.2727 11.6258 12.0808 11.0995 11.7212C10.5733 11.3616 10.1631 10.8504 9.92089 10.2524C9.67869 9.65441 9.61531 8.99637 9.73879 8.36152C9.86227 7.72668 10.167 7.14353 10.6146 6.68583C11.0621 6.22813 11.6323 5.91644 12.2531 5.79016C12.8738 5.66388 13.5173 5.72869 14.102 5.97639C14.6868 6.2241 15.1865 6.64357 15.5382 7.18177C15.8898 7.71997 16.0775 8.35272 16.0775 9C16.0775 9.86798 15.7403 10.7004 15.1402 11.3142C14.5401 11.9279 13.7261 12.2727 12.8774 12.2727Z" fill="white" fill-opacity="0.5"/>
</svg>
